<?xml version="1.0" encoding="UTF-8" standalone="no"?>
<svg width="230px" height="80px" viewBox="0 0 230 80" version="1.1" xmlns="http://www.w3.org/2000/svg" xmlns:xlink="http://www.w3.org/1999/xlink" xmlns:sketch="http://www.bohemiancoding.com/sketch/ns">
    <!-- Generator: Sketch 3.5.1 (25234) - http://www.bohemiancoding.com/sketch -->
    <title>Group 9 Copy</title>
    <desc>Created with Sketch.</desc>
    <defs></defs>
    <g id="Page-1" stroke="none" stroke-width="1" fill="none" fill-rule="evenodd" sketch:type="MSPage">
        <g id="Group-9-Copy" sketch:type="MSLayerGroup">
            <path d="M30,0.0196344855 L30,0 L0,0 L0,80 L30,80 L30,49.9803655 C30.3317084,49.9934143 30.6650851,50 31,50 C44.8071187,50 56,38.8071187 56,25 C56,11.1928813 44.8071187,0 31,0 C30.6650851,0 30.3317084,0.006585742 29.9999923,0.0196347889 Z" id="Rectangle-1-Copy-3" fill="#FF686C" sketch:type="MSShapeGroup"></path>
            <path d="M204,50 L204,0 L174,0 L174,80 L192,80 L230,80 L230,50 L204,50 Z" id="Rectangle-1-Copy-4" fill="#3458D0" sketch:type="MSShapeGroup"></path>
            <polygon id="Triangle-1-Copy" fill="#FFA6BB" sketch:type="MSShapeGroup" points="106 0 156 80 56 80 "></polygon>
        </g>
    </g>
</svg>