<?xml version="1.0" encoding="UTF-8" standalone="no"?>
<svg width="286px" height="99px" viewBox="0 0 286 99" version="1.1" xmlns="http://www.w3.org/2000/svg" xmlns:xlink="http://www.w3.org/1999/xlink" xmlns:sketch="http://www.bohemiancoding.com/sketch/ns">
    <!-- Generator: Sketch 3.5.1 (25234) - http://www.bohemiancoding.com/sketch -->
    <title>Group 2</title>
    <desc>Created with Sketch.</desc>
    <defs></defs>
    <g id="Page-1" stroke="none" stroke-width="1" fill="none" fill-rule="evenodd" sketch:type="MSPage">
        <g id="Group-2" sketch:type="MSLayerGroup">
            <path d="M37.4121094,0.0242490473 L37.4121094,0 L0,0 L0,98.8018647 L37.4121094,98.8018647 L37.4121094,61.7269164 C37.8257731,61.7430319 38.2415173,61.7511654 38.6591797,61.7511654 C55.8776276,61.7511654 69.8359375,47.9276962 69.8359375,30.8755827 C69.8359375,13.8234692 55.8776276,0 38.6591797,0 C38.2415173,0 37.8257731,0.00813354487 37.4120998,0.024249422 Z" id="Rectangle-1-Copy-38" fill="#FFA6BB" sketch:type="MSShapeGroup"></path>
            <path d="M253.412109,61.5704604 L253.412109,0 L216,0 L216,98.8018647 L223.783597,98.8018647 L223.783597,98.9825698 L285.534762,98.9825698 L285.534762,61.5704604 L253.412109,61.5704604 Z" id="Rectangle-1-Copy-39" fill="#3458D0" sketch:type="MSShapeGroup"></path>
            <polygon id="Triangle-1-Copy-18" fill="#FF686C" sketch:type="MSShapeGroup" points="130.353516 0 192.707031 98.8018647 68 98.8018647 "></polygon>
        </g>
    </g>
</svg>