<?xml version="1.0" encoding="UTF-8" standalone="no"?>
<svg width="307px" height="110px" viewBox="0 0 307 110" version="1.1" xmlns="http://www.w3.org/2000/svg" xmlns:xlink="http://www.w3.org/1999/xlink" xmlns:sketch="http://www.bohemiancoding.com/sketch/ns">
    <!-- Generator: Sketch 3.5.1 (25234) - http://www.bohemiancoding.com/sketch -->
    <title>Group 2 Copy 2</title>
    <desc>Created with Sketch.</desc>
    <defs></defs>
    <g id="Page-1" stroke="none" stroke-width="1" fill="none" fill-rule="evenodd" sketch:type="MSPage">
        <g id="Group-2-Copy-2" sketch:type="MSLayerGroup" transform="translate(-1.000000, -12.000000)">
            <path d="M255.412109,72.5704604 L255.412109,11 L218,11 L218,109.801865 L225.783597,109.801865 L225.783597,109.98257 L287.534762,109.98257 L287.534762,72.5704604 L255.412109,72.5704604 Z" id="Rectangle-1-Copy-39" fill="#3458D0" sketch:type="MSShapeGroup" transform="translate(252.917969, 60.400932) rotate(-30.000000) translate(-252.917969, -60.400932) "></path>
            <polygon id="Triangle-1-Copy-18" fill="#FF686C" sketch:type="MSShapeGroup" points="151.353516 23 213.707031 121.801865 89 121.801865 "></polygon>
            <polygon id="Triangle-1-Copy-19" fill="#85EDFF" sketch:type="MSShapeGroup" points="120.5 72 152 121.913124 89 121.913124 "></polygon>
            <polygon id="Triangle-1-Copy-20" fill="#FF9DFD" sketch:type="MSShapeGroup" points="182.5 72 214 121.913124 151 121.913124 "></polygon>
            <polygon id="Triangle-1-Copy-21" fill="#3EFFC5" sketch:type="MSShapeGroup" points="151.5 23 183 72.9131237 120 72.9131237 "></polygon>
            <g id="Group-5" transform="translate(56.000000, 72.500000) rotate(30.000000) translate(-56.000000, -72.500000) translate(21.000000, 23.000000)" fill="#FFA6BB" sketch:type="MSShapeGroup">
                <path d="M37.4121094,0.0242490473 L37.4121094,7.99360578e-14 L2.84217094e-14,7.99360578e-14 L2.84217094e-14,98.8018647 L37.4121094,98.8018647 L37.4121094,61.7269164 C37.8257731,61.7430319 38.2415173,61.7511654 38.6591797,61.7511654 C55.8776276,61.7511654 69.8359375,47.9276962 69.8359375,30.8755827 C69.8359375,13.8234692 55.8776276,7.99360578e-14 38.6591797,7.99360578e-14 C38.2415173,7.99360578e-14 37.8257731,0.00813354487 37.4120998,0.024249422 Z" id="Rectangle-1-Copy-38"></path>
            </g>
        </g>
    </g>
</svg>