<?xml version="1.0" encoding="UTF-8" standalone="no"?>
<svg width="410px" height="340px" viewBox="0 0 410 340" version="1.1" xmlns="http://www.w3.org/2000/svg" xmlns:xlink="http://www.w3.org/1999/xlink">
    <!-- Generator: Sketch 3.7 (28169) - http://www.bohemiancoding.com/sketch -->
    <title>day</title>
    <desc>Created with Sketch.</desc>
    <defs></defs>
    <g id="Page-1" stroke="none" stroke-width="1" fill="none" fill-rule="evenodd">
        <g id="sun-bk" transform="translate(71.000000, 0.000000)" fill="#FFC8BD">
            <path d="M169.5,339 C263.112265,339 339,263.112265 339,169.5 C339,75.8877349 263.112265,0 169.5,0 C75.8877349,0 0,75.8877349 0,169.5 C0,263.112265 75.8877349,339 169.5,339 Z" id="flower"></path>
            <path d="M338.902273,175.310596 C338.96725,173.381727 339,171.444688 339,169.5 C339,75.8877349 263.112265,0 169.5,0 C75.8877349,0 0,75.8877349 0,169.5 C0,246.221017 50.972365,311.0368 120.899175,331.929429 C113.252449,314.851613 109,295.922413 109,276 C109,200.336989 170.336989,139 246,139 C281.850616,139 314.484969,152.77046 338.902273,175.310596 Z" id="sun"></path>
        </g>
        <g id="day">
            <g id="tail" transform="translate(158.000000, 245.000000)">
                <path d="M8.5,1.49999996 C8.5,1.49999996 26,39.0000005 24.5,47.5000005 C23,56.0000005 33.9912885,13.2737686 42.5,7.50000001 C56.5,-2.00000008 8.5,1.49999996 8.5,1.49999996 Z" id="Path-6" fill="#3458D0"></path>
                <g id="tail-feathers" transform="translate(22.753687, 52.743512) rotate(5.000000) translate(-22.753687, -52.743512) translate(4.753687, 7.243512)">
                    <path d="M1.58333334,34.0108696 C1.00000002,43.8967391 -0.978610215,82.8586948 2.16666654,88.0923905 C5.3119433,93.3260861 8.58333343,88.0923916 8.58333345,85.1847829 C8.58333346,82.2771742 5.66666653,0.864130435 5.66666653,0.864130435 C5.66666653,0.864130435 2.16666665,24.125 1.58333334,34.0108696 Z" id="Path-7" fill="#3458D0"></path>
                    <path d="M6.83333333,57.8532609 C6.83333333,57.8532609 5.65022352,78.0931591 8.58333327,81.1141304 C11.516443,84.1351017 16.0893492,81.6956522 15.0000002,71.8097826 C13.9106512,61.923913 5.5,0.5 5.5,0.5 L6.83333333,57.8532609 Z" id="Path-8" fill="#FF686C"></path>
                    <path d="M9.21092992,30.6287354 C9.21092992,30.6287354 12.4234577,70.1954491 16.1873498,73.6616723 C19.9512419,77.1278954 24.3535601,73.0757506 22.0244729,65.5164993 C20.3059652,59.9389362 7.95718297,11.6568291 7.95718297,11.6568291 C7.95718297,11.6568291 7.69056755,10.6090197 7.55725984,10.085115 C6.87150653,7.39007665 5.49999989,2.00000002 5.49999989,2.00000002 L9.21092992,30.6287354 Z" id="Path-8-Copy" fill="#F49CB1"></path>
                    <path d="M17.1198304,47.3555816 C17.1198304,47.3555816 20.9575227,60.6905301 23.4459058,62.8472669 C25.934289,65.0040037 31.7098549,63.8181015 27.5746824,54.7811793 C23.4395099,45.7442572 3.36024603,3.32147682 3.36024603,3.32147682 L17.1198304,47.3555816 Z" id="Path-8-Copy-2" fill="#009EE5" transform="translate(16.192132, 33.548007) rotate(4.000000) translate(-16.192132, -33.548007) "></path>
                    <path d="M12.7975651,22.8477065 C12.7975651,22.8477065 23.0431659,48.7577925 27.0396809,51.9530162 C31.0361958,55.1482399 36.285993,50.5557872 31.1335526,45.1709387 C25.9811123,39.7860901 3.42929266,2.6546251 3.42929266,2.6546251 L12.7975651,22.8477065 Z" id="Path-8-Copy-3" fill="#009EE5" transform="translate(18.353155, 27.830794) rotate(5.000000) translate(-18.353155, -27.830794) "></path>
                </g>
            </g>
            <path d="M189.477498,96.6431236 L176,87.6581249 L206,52.5 L205.990563,52.8317832 C215.943278,40.232288 232.392543,32 251,32 C277.220449,32 299.155448,55.0988561 304.665952,72.9959551 C316.580636,71.9423168 330.245004,71.5842107 344,73 C382.861702,77 409.500007,83.1572737 409.500007,83.1572737 C409.500007,83.1572737 343.791283,79.6272957 305.242999,86.9023447 C301.470416,102.607035 283.989622,123.439174 261.664202,128.734453 C263.786583,138.943445 265.384788,152.152116 264,166 C261,196 264,190.5 245,216.5 C226,242.5 186.766276,264.768943 172.832769,255.454273 C158.899262,246.139603 147.109371,179.901953 149.252987,170.069802 C151.139694,161.41602 182.086691,109.066786 189.477498,96.6431236 Z" id="body" fill="#3458D0"></path>
            <g id="wing---back" transform="translate(29.000000, 44.000000)">
                <path d="M171.946015,50.6765158 C171.946015,50.6765158 64.9460145,-10.8234842 10.4460145,1.67651584 C-0.810097064,4.25819281 -2.21258989,11.2334747 2.64846307,20.6773776 C4.94887565,25.1465477 15.2746251,27.1291461 20,32.5 C24.0556885,37.1096893 22.241787,45.0157655 27.5629741,50.0104055 C31.5758143,53.7769882 42.0074376,53.6431665 46.5,57.5 C52.0189204,62.2379548 51.694633,70.9754571 57.5905541,75.6635758 C93.3136124,104.068627 132.446015,129.676516 132.446015,129.676516 L171.946015,50.6765158 Z" id="Path-3" fill="#3458D0"></path>
                <path d="M41.1811539,0.947116413 C29.976514,-0.434304855 19.4886216,-0.397476595 10.4460145,1.67651584 C-0.810097064,4.25819281 -2.21258989,11.2334747 2.64846307,20.6773776 C4.94887565,25.1465477 15.2746251,27.1291461 20,32.5 C24.0556885,37.1096893 22.241787,45.0157655 27.5629741,50.0104055 C31.5758143,53.7769882 42.0074376,53.6431665 46.5,57.5 C52.0189204,62.2379548 51.694633,70.9754571 57.5905541,75.6635758 C85.320397,97.7128525 112.726866,110.739647 123.603207,115.465343 C116.245024,105.400425 103.832034,90.9633641 84.5905541,75.6635758 C78.694633,70.9754571 79.0189204,62.2379548 73.5,57.5 C69.0074376,53.6431665 58.5758143,53.7769882 54.5629741,50.0104055 C49.241787,45.0157655 51.0556885,37.1096893 47,32.5 C42.2746251,27.1291461 31.9488757,25.1465477 29.6484631,20.6773776 C24.7874101,11.2334747 26.1899029,4.25819281 37.4460145,1.67651584 C38.6653761,1.39684576 39.911018,1.15421847 41.1811539,0.947116413 Z" id="red" fill="#FF686C"></path>
                <path d="M58.525525,3.92640731 C51.0983232,2.17478931 43.9759516,0.951810547 37.5000004,0.500000006 C25.853834,-0.312523224 24.7874101,11.2334747 29.6484631,20.6773776 C31.9488757,25.1465477 42.2746251,27.1291461 47,32.5 C51.0556885,37.1096893 49.241787,45.0157655 54.5629741,50.0104055 C58.5758143,53.7769882 69.0074376,53.6431665 73.5,57.5 C79.0189204,62.2379548 78.694633,70.9754571 84.5905541,75.6635758 C120.313612,104.068627 134,102 134,102 L135.366536,97.3310033 C128.971963,90.6041283 121.11842,83.2396209 111.590554,75.6635758 C105.694633,70.9754571 106.01892,62.2379548 100.5,57.5 C96.0074376,53.6431665 85.5758143,53.7769882 81.5629741,50.0104055 C76.241787,45.0157655 78.0556885,37.1096893 74,32.5 C69.2746251,27.1291461 58.9488757,25.1465477 56.6484631,20.6773776 C52.8305234,13.2600027 52.8764107,7.3654594 58.525525,3.92640731 Z" id="pink" fill="#F49CB1"></path>
            </g>
            <g id="wing---back" transform="translate(0.000000, 109.000000)">
                <path d="M174.602276,49.5 C174.602276,49.5 137,72 108,74.5 C101.582492,75.0532335 95.9218371,66.9494235 86,66 C79.6017411,65.3877487 66.9363708,71.0925878 60,70 C50.7022502,68.5354577 48.7492227,61.586754 40,59.497467 C31.9050324,57.5644142 23.1511569,61.7403862 16.9561055,59.4974656 C7.58440232,56.1044373 1.17321071,52.4805373 0.102276145,49 C-3.89772386,36 110.602276,0 138.102276,0 C165.602276,0 187.102276,6 187.102276,6 L174.602276,49.5 Z" id="Path-4" fill="#3458D0"></path>
                <path d="M6.73587543,40.9728638 C1.95870857,44.0676424 -0.551289299,46.805755 0.102276145,48.9298427 C1.17321071,52.4103801 7.58440232,56.03428 16.9561055,59.4273084 C23.1511569,61.6702289 31.9050324,57.4942569 40,59.4273098 C48.7492227,61.5165967 50.7022502,68.4653005 60,69.9298427 C66.9363708,71.0224305 79.6017411,65.3175914 86,65.9298427 C95.9218371,66.8792662 101.582492,74.9830762 108,74.4298427 C137,71.9298427 161.5,65.0000026 161.5,65.0000026 L161.407377,64.3516443 C157.465915,63.3904599 134.389037,58.1549258 108,60.4298427 C101.582492,60.9830762 95.9218371,52.8792662 86,51.9298427 C79.6017411,51.3175914 66.9363708,57.0224305 60,55.9298427 C50.7022502,54.4653005 48.7492227,47.5165967 40,45.4273098 C31.9050324,43.4942569 23.1511569,47.6702289 16.9561055,45.4273084 C12.944779,43.9750062 9.47583512,42.4804071 6.73588555,40.9728572 Z" id="red" fill="#FF686C"></path>
                <path d="M6.64048513,40.9201984 C9.39513634,42.4456005 12.8980783,43.9580982 16.9561055,45.4273084 C23.1511569,47.6702289 31.9050324,43.4942569 40,45.4273098 C48.7492227,47.5165967 50.7022502,54.4653005 60,55.9298427 C66.9363708,57.0224305 79.6017411,51.3175914 86,51.9298427 C95.9218371,52.8792662 101.582492,60.9830762 108,60.4298427 C137,57.9298427 161.5,64.5000026 161.5,64.5000026 L161.458662,63.987413 C158.127461,60.9238674 139.686886,45.2425122 113.499997,47.5000026 C107.082489,48.0532361 95.9218371,38.8792662 86,37.9298427 C79.6017411,37.3175914 66.9363708,43.0224305 60,41.9298427 C50.7022502,40.4653005 53.5000008,37.9999988 39.5000008,33.9999988 C26.2024955,30.2007116 8.39418201,39.9338498 6.64048513,40.9201984 Z" id="pink" fill="#F49CB1"></path>
            </g>
            <path d="M188.957562,96.2819362 L189.499343,96.6431236 C189.472323,96.6885436 189.444987,96.7344972 189.41734,96.7809803 C194.442886,102.165412 201.573667,107.522474 211.021845,109.5 C232.518858,113.999375 249.517121,122.497638 264.515592,152.987288 C264.330779,144.010396 263.12967,135.678511 261.686047,128.734453 C284.011467,123.439174 301.492261,102.607035 305.264844,86.9023447 C343.813128,79.6272957 409.521852,83.1572737 409.521852,83.1572737 C409.521852,83.1572737 382.883547,77 344.021845,73 C330.266849,71.5842107 316.602481,71.9423168 304.687793,72.9959555 C299.177293,55.0988561 277.242294,32 251.021845,32 C232.414388,32 215.965123,40.232288 206.012408,52.8317832 L206.021845,52.5 L180,82.9959759 L180.021845,83 C180.021845,83 182.864048,89.581944 188.957562,96.2819362 Z" id="head" fill="#3458D0"></path>
            <g id="eye" transform="translate(238.000000, 51.000000)">
                <circle id="Oval-2-Copy-2" fill="#000000" cx="24" cy="24" r="24"></circle>
                <path d="M47.6596561,28.0503959 C45.7346195,39.3764439 35.8743795,48 24,48 C10.745166,48 0,37.254834 0,24 C0,10.745166 10.745166,0 24,0 C37.254834,0 48,10.745166 48,24 C48,24.0888644 47.999517,24.177616 47.9985536,24.2662523 C47.8733761,14.1567041 39.6392382,6 29.5,6 C19.2827321,6 11,14.2827321 11,24.5 C11,34.7172679 19.2827321,43 29.5,43 C38.502923,43 46.003831,36.5691093 47.6596561,28.0503959 Z" id="Combined-Shape" fill="#FFFFFF"></path>
                <circle id="Oval-6" fill="#FFFFFF" cx="35" cy="30" r="5"></circle>
            </g>
        </g>
    </g>
</svg>