<?xml version="1.0" encoding="UTF-8" standalone="no"?>
<svg width="410px" height="340px" viewBox="0 0 410 340" version="1.1" xmlns="http://www.w3.org/2000/svg" xmlns:xlink="http://www.w3.org/1999/xlink">
    <!-- Generator: Sketch 3.7 (28169) - http://www.bohemiancoding.com/sketch -->
    <title>night</title>
    <desc>Created with Sketch.</desc>
    <defs>
        <path d="M169.5,339 C263.112265,339 339,263.112265 339,169.5 C339,75.8877349 263.112265,0 169.5,0 C75.8877349,0 0,75.8877349 0,169.5 C0,263.112265 75.8877349,339 169.5,339 Z" id="path-1"></path>
        <polygon id="path-3" points="0 0.7348 0 5.9928 5.2588 5.9928 5.2588 0.7348 0 0.7348"></polygon>
        <polygon id="path-5" points="7.24 7.0027 7.24 0.0187 0.2572 0.0187 0.2572 7.0027 7.24 7.0027"></polygon>
        <polygon id="path-7" points="0 0.7348 0 5.9928 5.2588 5.9928 5.2588 0.7348 0 0.7348"></polygon>
        <polygon id="path-9" points="7.24 7.0027 7.24 0.0187 0.2572 0.0187 0.2572 7.0027 7.24 7.0027"></polygon>
    </defs>
    <g id="Page-1" stroke="none" stroke-width="1" fill="none" fill-rule="evenodd">
        <g id="night">
            <g id="stars" transform="translate(71.000000, 0.000000)">
                <mask id="mask-2" fill="white">
                    <use xlink:href="#path-1"></use>
                </mask>
                <g id="Mask">
                    <use fill="#222222" xlink:href="#path-1"></use>
                    <use fill="#CB82C0" xlink:href="#path-1"></use>
                </g>
                <g id="Page-1" mask="url(#mask-2)">
                    <g transform="translate(87.000000, -10.000000)">
                        <path d="M62.0186,59.1436 C62.0186,60.6086 60.8316,61.7956 59.3666,61.7956 C57.9016,61.7956 56.7136,60.6086 56.7136,59.1436 C56.7136,57.6786 57.9016,56.4916 59.3666,56.4916 C60.8316,56.4916 62.0186,57.6786 62.0186,59.1436" id="Fill-1" fill="#FFFFFF"></path>
                        <path d="M48.4111,185.3975 C48.4111,187.2195 46.9341,188.6955 45.1121,188.6955 C43.2911,188.6955 41.8141,187.2195 41.8141,185.3975 C41.8141,183.5755 43.2911,182.0995 45.1121,182.0995 C46.9341,182.0995 48.4111,183.5755 48.4111,185.3975" id="Fill-3" fill="#FFFFFF"></path>
                        <path d="M190.1777,155.1631 C190.1777,156.7601 188.8837,158.0541 187.2867,158.0541 C185.6897,158.0541 184.3957,156.7601 184.3957,155.1631 C184.3957,153.5661 185.6897,152.2711 187.2867,152.2711 C188.8837,152.2711 190.1777,153.5661 190.1777,155.1631" id="Fill-5" fill="#FFFFFF"></path>
                        <path d="M125.627,190.6104 C125.627,192.1564 124.373,193.4104 122.827,193.4104 C121.28,193.4104 120.026,192.1564 120.026,190.6104 C120.026,189.0634 121.28,187.8094 122.827,187.8094 C124.373,187.8094 125.627,189.0634 125.627,190.6104" id="Fill-7" fill="#FFFFFF"></path>
                        <path d="M174.5898,166.0118 C174.5898,167.5668 173.3288,168.8278 171.7748,168.8278 C170.2198,168.8278 168.9588,167.5668 168.9588,166.0118 C168.9588,164.4568 170.2198,163.1968 171.7748,163.1968 C173.3288,163.1968 174.5898,164.4568 174.5898,166.0118" id="Fill-9" fill="#FFFFFF"></path>
                        <path d="M137.1748,136.2261 C137.1748,137.5351 136.1128,138.5971 134.8048,138.5971 C133.4948,138.5971 132.4338,137.5351 132.4338,136.2261 C132.4338,134.9171 133.4948,133.8551 134.8048,133.8551 C136.1128,133.8551 137.1748,134.9171 137.1748,136.2261" id="Fill-11" fill="#FFFFFF"></path>
                        <path d="M132.8848,147.9439 C132.8848,149.2979 131.7868,150.3949 130.4338,150.3949 C129.0788,150.3949 127.9818,149.2979 127.9818,147.9439 C127.9818,146.5899 129.0788,145.4929 130.4338,145.4929 C131.7868,145.4929 132.8848,146.5899 132.8848,147.9439" id="Fill-13" fill="#FFFFFF"></path>
                        <path d="M68.8975,154.5914 C68.8975,156.1074 67.6685,157.3354 66.1535,157.3354 C64.6375,157.3354 63.4105,156.1074 63.4105,154.5914 C63.4105,153.0764 64.6375,151.8474 66.1535,151.8474 C67.6685,151.8474 68.8975,153.0764 68.8975,154.5914" id="Fill-15" fill="#FFFFFF"></path>
                        <path d="M50.3896,126.3912 C50.3896,127.9012 49.1656,129.1242 47.6566,129.1242 C46.1476,129.1242 44.9226,127.9012 44.9226,126.3912 C44.9226,124.8822 46.1476,123.6582 47.6566,123.6582 C49.1656,123.6582 50.3896,124.8822 50.3896,126.3912" id="Fill-17" fill="#FFFFFF"></path>
                        <path d="M9.5024,165.6939 C9.5024,167.0919 8.3684,168.2259 6.9704,168.2259 C5.5724,168.2259 4.4394,167.0919 4.4394,165.6939 C4.4394,164.2959 5.5724,163.1619 6.9704,163.1619 C8.3684,163.1619 9.5024,164.2959 9.5024,165.6939" id="Fill-19" fill="#FFFFFF"></path>
                        <path d="M19.5527,152.4683 C19.5527,154.0773 18.2487,155.3813 16.6397,155.3813 C15.0317,155.3813 13.7267,154.0773 13.7267,152.4683 C13.7267,150.8593 15.0317,149.5553 16.6397,149.5553 C18.2487,149.5553 19.5527,150.8593 19.5527,152.4683" id="Fill-21" fill="#FFFFFF"></path>
                        <g id="Group-25" stroke-width="1" fill="none" transform="translate(0.000000, 140.419000)">
                            <mask id="mask-4" fill="white">
                                <use xlink:href="#path-3"></use>
                            </mask>
                            <g id="Clip-24"></g>
                            <path d="M5.2588,3.3638 C5.2588,4.8158 4.0818,5.9928 2.6298,5.9928 C1.1768,5.9928 -0.0002,4.8158 -0.0002,3.3638 C-0.0002,1.9118 1.1768,0.7348 2.6298,0.7348 C4.0818,0.7348 5.2588,1.9118 5.2588,3.3638" id="Fill-23" fill="#FFFFFF" mask="url(#mask-4)"></path>
                        </g>
                        <path d="M37.126,92.3365 C37.126,93.8515 35.897,95.0805 34.383,95.0805 C32.867,95.0805 31.639,93.8515 31.639,92.3365 C31.639,90.8205 32.867,89.5925 34.383,89.5925 C35.897,89.5925 37.126,90.8205 37.126,92.3365" id="Fill-26" fill="#FFFFFF"></path>
                        <path d="M17.1816,75.8848 C17.1816,77.6478 15.7526,79.0768 13.9896,79.0768 C12.2266,79.0768 10.7976,77.6478 10.7976,75.8848 C10.7976,74.1218 12.2266,72.6928 13.9896,72.6928 C15.7526,72.6928 17.1816,74.1218 17.1816,75.8848" id="Fill-28" fill="#FFFFFF"></path>
                        <path d="M193.3105,114.3995 C193.3105,115.9505 192.0525,117.2085 190.5015,117.2085 C188.9505,117.2085 187.6925,115.9505 187.6925,114.3995 C187.6925,112.8485 188.9505,111.5905 190.5015,111.5905 C192.0525,111.5905 193.3105,112.8485 193.3105,114.3995" id="Fill-30" fill="#FFFFFF"></path>
                        <path d="M189.1133,129.9737 C189.1133,131.4987 187.8773,132.7347 186.3513,132.7347 C184.8273,132.7347 183.5913,131.4987 183.5913,129.9737 C183.5913,128.4487 184.8273,127.2127 186.3513,127.2127 C187.8773,127.2127 189.1133,128.4487 189.1133,129.9737" id="Fill-32" fill="#FFFFFF"></path>
                        <path d="M167.625,222.1148 C167.625,223.9398 166.146,225.4188 164.32,225.4188 C162.495,225.4188 161.017,223.9398 161.017,222.1148 C161.017,220.2898 162.495,218.8098 164.32,218.8098 C166.146,218.8098 167.625,220.2898 167.625,222.1148" id="Fill-34" fill="#FFFFFF"></path>
                        <path d="M88.5459,146.5147 C88.5459,147.9327 87.3969,149.0817 85.9789,149.0817 C84.5609,149.0817 83.4109,147.9327 83.4109,146.5147 C83.4109,145.0967 84.5609,143.9477 85.9789,143.9477 C87.3969,143.9477 88.5459,145.0967 88.5459,146.5147" id="Fill-38" fill="#FFFFFF"></path>
                        <g id="Group-42" stroke-width="1" fill="none" transform="translate(227.000000, 170.419000)">
                            <mask id="mask-6" fill="white">
                                <use xlink:href="#path-5"></use>
                            </mask>
                            <g id="Clip-41"></g>
                            <path d="M7.2402,3.5107 C7.2402,5.4387 5.6772,7.0027 3.7482,7.0027 C1.8202,7.0027 0.2572,5.4387 0.2572,3.5107 C0.2572,1.5827 1.8202,0.0187 3.7482,0.0187 C5.6772,0.0187 7.2402,1.5827 7.2402,3.5107" id="Fill-40" fill="#FFFFFF" mask="url(#mask-6)"></path>
                        </g>
                        <path d="M33.4893,58.9249 C33.4893,60.6649 32.0783,62.0759 30.3383,62.0759 C28.5973,62.0759 27.1863,60.6649 27.1863,58.9249 C27.1863,57.1839 28.5973,55.7739 30.3383,55.7739 C32.0783,55.7739 33.4893,57.1839 33.4893,58.9249" id="Fill-43" fill="#FFFFFF"></path>
                        <path d="M79.9609,108.2632 C79.9609,109.6192 78.8609,110.7192 77.5059,110.7192 C76.1489,110.7192 75.0499,109.6192 75.0499,108.2632 C75.0499,106.9072 76.1489,105.8072 77.5059,105.8072 C78.8609,105.8072 79.9609,106.9072 79.9609,108.2632" id="Fill-45" fill="#FFFFFF"></path>
                        <path d="M40.916,107.2877 C40.916,108.8137 39.679,110.0507 38.153,110.0507 C36.628,110.0507 35.392,108.8137 35.392,107.2877 C35.392,105.7627 36.628,104.5257 38.153,104.5257 C39.679,104.5257 40.916,105.7627 40.916,107.2877" id="Fill-47" fill="#FFFFFF"></path>
                        <path d="M83.1201,124.8467 C83.1201,126.2207 82.0071,127.3347 80.6331,127.3347 C79.2591,127.3347 78.1451,126.2207 78.1451,124.8467 C78.1451,123.4727 79.2591,122.3587 80.6331,122.3587 C82.0071,122.3587 83.1201,123.4727 83.1201,124.8467" id="Fill-49" fill="#FFFFFF"></path>
                        <path d="M58.6299,138.0743 C58.6299,139.5803 57.4089,140.8003 55.9039,140.8003 C54.3989,140.8003 53.1779,139.5803 53.1779,138.0743 C53.1779,136.5693 54.3989,135.3483 55.9039,135.3483 C57.4089,135.3483 58.6299,136.5693 58.6299,138.0743" id="Fill-51" fill="#FFFFFF"></path>
                        <path d="M115.1328,112.8194 C115.1328,114.0964 114.0978,115.1324 112.8198,115.1324 C111.5428,115.1324 110.5068,114.0964 110.5068,112.8194 C110.5068,111.5424 111.5428,110.5064 112.8198,110.5064 C114.0978,110.5064 115.1328,111.5424 115.1328,112.8194" id="Fill-53" fill="#FFFFFF"></path>
                        <path d="M106.4385,97.8399 C106.4385,99.1609 105.3675,100.2329 104.0455,100.2329 C102.7245,100.2329 101.6535,99.1609 101.6535,97.8399 C101.6535,96.5189 102.7245,95.4469 104.0455,95.4469 C105.3675,95.4469 106.4385,96.5189 106.4385,97.8399" id="Fill-55" fill="#FFFFFF"></path>
                        <path d="M179.1572,43.0416 C179.1572,44.8536 177.6882,46.3236 175.8762,46.3236 C174.0632,46.3236 172.5952,44.8536 172.5952,43.0416 C172.5952,41.2296 174.0632,39.7596 175.8762,39.7596 C177.6882,39.7596 179.1572,41.2296 179.1572,43.0416" id="Fill-57" fill="#FFFFFF"></path>
                        <path d="M139.2617,54.0792 C139.2617,55.6072 138.0227,56.8472 136.4937,56.8472 C134.9657,56.8472 133.7267,55.6072 133.7267,54.0792 C133.7267,52.5502 134.9657,51.3112 136.4937,51.3112 C138.0227,51.3112 139.2617,52.5502 139.2617,54.0792" id="Fill-59" fill="#FFFFFF"></path>
                        <path d="M77.8086,10.2349 C77.8086,11.8699 76.4826,13.1959 74.8476,13.1959 C73.2126,13.1959 71.8866,11.8699 71.8866,10.2349 C71.8866,8.5999 73.2126,7.2749 74.8476,7.2749 C76.4826,7.2749 77.8086,8.5999 77.8086,10.2349" id="Fill-61" fill="#FFFFFF"></path>
                    </g>
                </g>
                <g id="Page-1-Copy" mask="url(#mask-2)">
                    <g transform="translate(91.000000, 128.000000)">
                        <path d="M62.0186,59.1436 C62.0186,60.6086 60.8316,61.7956 59.3666,61.7956 C57.9016,61.7956 56.7136,60.6086 56.7136,59.1436 C56.7136,57.6786 57.9016,56.4916 59.3666,56.4916 C60.8316,56.4916 62.0186,57.6786 62.0186,59.1436" id="Fill-1" fill="#FFFFFF"></path>
                        <path d="M48.4111,185.3975 C48.4111,187.2195 46.9341,188.6955 45.1121,188.6955 C43.2911,188.6955 41.8141,187.2195 41.8141,185.3975 C41.8141,183.5755 43.2911,182.0995 45.1121,182.0995 C46.9341,182.0995 48.4111,183.5755 48.4111,185.3975" id="Fill-3" fill="#FFFFFF"></path>
                        <path d="M190.1777,155.1631 C190.1777,156.7601 188.8837,158.0541 187.2867,158.0541 C185.6897,158.0541 184.3957,156.7601 184.3957,155.1631 C184.3957,153.5661 185.6897,152.2711 187.2867,152.2711 C188.8837,152.2711 190.1777,153.5661 190.1777,155.1631" id="Fill-5" fill="#FFFFFF"></path>
                        <path d="M125.627,190.6104 C125.627,192.1564 124.373,193.4104 122.827,193.4104 C121.28,193.4104 120.026,192.1564 120.026,190.6104 C120.026,189.0634 121.28,187.8094 122.827,187.8094 C124.373,187.8094 125.627,189.0634 125.627,190.6104" id="Fill-7" fill="#FFFFFF"></path>
                        <path d="M174.5898,166.0118 C174.5898,167.5668 173.3288,168.8278 171.7748,168.8278 C170.2198,168.8278 168.9588,167.5668 168.9588,166.0118 C168.9588,164.4568 170.2198,163.1968 171.7748,163.1968 C173.3288,163.1968 174.5898,164.4568 174.5898,166.0118" id="Fill-9" fill="#FFFFFF"></path>
                        <path d="M137.1748,136.2261 C137.1748,137.5351 136.1128,138.5971 134.8048,138.5971 C133.4948,138.5971 132.4338,137.5351 132.4338,136.2261 C132.4338,134.9171 133.4948,133.8551 134.8048,133.8551 C136.1128,133.8551 137.1748,134.9171 137.1748,136.2261" id="Fill-11" fill="#FFFFFF"></path>
                        <path d="M132.8848,147.9439 C132.8848,149.2979 131.7868,150.3949 130.4338,150.3949 C129.0788,150.3949 127.9818,149.2979 127.9818,147.9439 C127.9818,146.5899 129.0788,145.4929 130.4338,145.4929 C131.7868,145.4929 132.8848,146.5899 132.8848,147.9439" id="Fill-13" fill="#FFFFFF"></path>
                        <path d="M68.8975,154.5914 C68.8975,156.1074 67.6685,157.3354 66.1535,157.3354 C64.6375,157.3354 63.4105,156.1074 63.4105,154.5914 C63.4105,153.0764 64.6375,151.8474 66.1535,151.8474 C67.6685,151.8474 68.8975,153.0764 68.8975,154.5914" id="Fill-15" fill="#FFFFFF"></path>
                        <path d="M50.3896,126.3912 C50.3896,127.9012 49.1656,129.1242 47.6566,129.1242 C46.1476,129.1242 44.9226,127.9012 44.9226,126.3912 C44.9226,124.8822 46.1476,123.6582 47.6566,123.6582 C49.1656,123.6582 50.3896,124.8822 50.3896,126.3912" id="Fill-17" fill="#FFFFFF"></path>
                        <path d="M9.5024,165.6939 C9.5024,167.0919 8.3684,168.2259 6.9704,168.2259 C5.5724,168.2259 4.4394,167.0919 4.4394,165.6939 C4.4394,164.2959 5.5724,163.1619 6.9704,163.1619 C8.3684,163.1619 9.5024,164.2959 9.5024,165.6939" id="Fill-19" fill="#FFFFFF"></path>
                        <path d="M19.5527,152.4683 C19.5527,154.0773 18.2487,155.3813 16.6397,155.3813 C15.0317,155.3813 13.7267,154.0773 13.7267,152.4683 C13.7267,150.8593 15.0317,149.5553 16.6397,149.5553 C18.2487,149.5553 19.5527,150.8593 19.5527,152.4683" id="Fill-21" fill="#FFFFFF"></path>
                        <g id="Group-25" stroke-width="1" fill="none" transform="translate(0.000000, 140.419000)">
                            <mask id="mask-8" fill="white">
                                <use xlink:href="#path-7"></use>
                            </mask>
                            <g id="Clip-24"></g>
                            <path d="M5.2588,3.3638 C5.2588,4.8158 4.0818,5.9928 2.6298,5.9928 C1.1768,5.9928 -0.0002,4.8158 -0.0002,3.3638 C-0.0002,1.9118 1.1768,0.7348 2.6298,0.7348 C4.0818,0.7348 5.2588,1.9118 5.2588,3.3638" id="Fill-23" fill="#FFFFFF" mask="url(#mask-8)"></path>
                        </g>
                        <path d="M37.126,92.3365 C37.126,93.8515 35.897,95.0805 34.383,95.0805 C32.867,95.0805 31.639,93.8515 31.639,92.3365 C31.639,90.8205 32.867,89.5925 34.383,89.5925 C35.897,89.5925 37.126,90.8205 37.126,92.3365" id="Fill-26" fill="#FFFFFF"></path>
                        <path d="M17.1816,75.8848 C17.1816,77.6478 15.7526,79.0768 13.9896,79.0768 C12.2266,79.0768 10.7976,77.6478 10.7976,75.8848 C10.7976,74.1218 12.2266,72.6928 13.9896,72.6928 C15.7526,72.6928 17.1816,74.1218 17.1816,75.8848" id="Fill-28" fill="#FFFFFF"></path>
                        <path d="M193.3105,114.3995 C193.3105,115.9505 192.0525,117.2085 190.5015,117.2085 C188.9505,117.2085 187.6925,115.9505 187.6925,114.3995 C187.6925,112.8485 188.9505,111.5905 190.5015,111.5905 C192.0525,111.5905 193.3105,112.8485 193.3105,114.3995" id="Fill-30" fill="#FFFFFF"></path>
                        <path d="M189.1133,129.9737 C189.1133,131.4987 187.8773,132.7347 186.3513,132.7347 C184.8273,132.7347 183.5913,131.4987 183.5913,129.9737 C183.5913,128.4487 184.8273,127.2127 186.3513,127.2127 C187.8773,127.2127 189.1133,128.4487 189.1133,129.9737" id="Fill-32" fill="#FFFFFF"></path>
                        <path d="M146.5332,3.4361 C146.5332,5.3331 144.9952,6.8721 143.0972,6.8721 C141.2002,6.8721 139.6622,5.3331 139.6622,3.4361 C139.6622,1.5391 141.2002,0.0001 143.0972,0.0001 C144.9952,0.0001 146.5332,1.5391 146.5332,3.4361" id="Fill-36" fill="#FFFFFF"></path>
                        <path d="M88.5459,146.5147 C88.5459,147.9327 87.3969,149.0817 85.9789,149.0817 C84.5609,149.0817 83.4109,147.9327 83.4109,146.5147 C83.4109,145.0967 84.5609,143.9477 85.9789,143.9477 C87.3969,143.9477 88.5459,145.0967 88.5459,146.5147" id="Fill-38" fill="#FFFFFF"></path>
                        <g id="Group-42" stroke-width="1" fill="none" transform="translate(227.000000, 170.419000)">
                            <mask id="mask-10" fill="white">
                                <use xlink:href="#path-9"></use>
                            </mask>
                            <g id="Clip-41"></g>
                            <path d="M7.2402,3.5107 C7.2402,5.4387 5.6772,7.0027 3.7482,7.0027 C1.8202,7.0027 0.2572,5.4387 0.2572,3.5107 C0.2572,1.5827 1.8202,0.0187 3.7482,0.0187 C5.6772,0.0187 7.2402,1.5827 7.2402,3.5107" id="Fill-40" fill="#FFFFFF" mask="url(#mask-10)"></path>
                        </g>
                        <path d="M33.4893,58.9249 C33.4893,60.6649 32.0783,62.0759 30.3383,62.0759 C28.5973,62.0759 27.1863,60.6649 27.1863,58.9249 C27.1863,57.1839 28.5973,55.7739 30.3383,55.7739 C32.0783,55.7739 33.4893,57.1839 33.4893,58.9249" id="Fill-43" fill="#FFFFFF"></path>
                        <path d="M79.9609,108.2632 C79.9609,109.6192 78.8609,110.7192 77.5059,110.7192 C76.1489,110.7192 75.0499,109.6192 75.0499,108.2632 C75.0499,106.9072 76.1489,105.8072 77.5059,105.8072 C78.8609,105.8072 79.9609,106.9072 79.9609,108.2632" id="Fill-45" fill="#FFFFFF"></path>
                        <path d="M40.916,107.2877 C40.916,108.8137 39.679,110.0507 38.153,110.0507 C36.628,110.0507 35.392,108.8137 35.392,107.2877 C35.392,105.7627 36.628,104.5257 38.153,104.5257 C39.679,104.5257 40.916,105.7627 40.916,107.2877" id="Fill-47" fill="#FFFFFF"></path>
                        <path d="M83.1201,124.8467 C83.1201,126.2207 82.0071,127.3347 80.6331,127.3347 C79.2591,127.3347 78.1451,126.2207 78.1451,124.8467 C78.1451,123.4727 79.2591,122.3587 80.6331,122.3587 C82.0071,122.3587 83.1201,123.4727 83.1201,124.8467" id="Fill-49" fill="#FFFFFF"></path>
                        <path d="M58.6299,138.0743 C58.6299,139.5803 57.4089,140.8003 55.9039,140.8003 C54.3989,140.8003 53.1779,139.5803 53.1779,138.0743 C53.1779,136.5693 54.3989,135.3483 55.9039,135.3483 C57.4089,135.3483 58.6299,136.5693 58.6299,138.0743" id="Fill-51" fill="#FFFFFF"></path>
                        <path d="M115.1328,112.8194 C115.1328,114.0964 114.0978,115.1324 112.8198,115.1324 C111.5428,115.1324 110.5068,114.0964 110.5068,112.8194 C110.5068,111.5424 111.5428,110.5064 112.8198,110.5064 C114.0978,110.5064 115.1328,111.5424 115.1328,112.8194" id="Fill-53" fill="#FFFFFF"></path>
                        <path d="M106.4385,97.8399 C106.4385,99.1609 105.3675,100.2329 104.0455,100.2329 C102.7245,100.2329 101.6535,99.1609 101.6535,97.8399 C101.6535,96.5189 102.7245,95.4469 104.0455,95.4469 C105.3675,95.4469 106.4385,96.5189 106.4385,97.8399" id="Fill-55" fill="#FFFFFF"></path>
                        <path d="M179.1572,43.0416 C179.1572,44.8536 177.6882,46.3236 175.8762,46.3236 C174.0632,46.3236 172.5952,44.8536 172.5952,43.0416 C172.5952,41.2296 174.0632,39.7596 175.8762,39.7596 C177.6882,39.7596 179.1572,41.2296 179.1572,43.0416" id="Fill-57" fill="#FFFFFF"></path>
                        <path d="M139.2617,54.0792 C139.2617,55.6072 138.0227,56.8472 136.4937,56.8472 C134.9657,56.8472 133.7267,55.6072 133.7267,54.0792 C133.7267,52.5502 134.9657,51.3112 136.4937,51.3112 C138.0227,51.3112 139.2617,52.5502 139.2617,54.0792" id="Fill-59" fill="#FFFFFF"></path>
                        <path d="M77.8086,10.2349 C77.8086,11.8699 76.4826,13.1959 74.8476,13.1959 C73.2126,13.1959 71.8866,11.8699 71.8866,10.2349 C71.8866,8.5999 73.2126,7.2749 74.8476,7.2749 C76.4826,7.2749 77.8086,8.5999 77.8086,10.2349" id="Fill-61" fill="#FFFFFF"></path>
                    </g>
                </g>
            </g>
            <path d="M285.5,332.961737 C271.16975,336.897861 256.080365,339 240.5,339 C146.887735,339 71,263.112265 71,169.5 C71,75.8877349 146.887735,0 240.5,0 C256.080365,0 271.16975,2.1021386 285.5,6.03826262 C213.72911,25.7517438 161,91.4681001 161,169.5 C161,247.5319 213.72911,313.248256 285.5,332.961737 Z" id="Combined-Shape" fill="#FFC8BD"></path>
            <g id="tail" transform="translate(158.000000, 245.000000)">
                <path d="M8.5,1.49999996 C8.5,1.49999996 26,39.0000005 24.5,47.5000005 C23,56.0000005 33.9912885,13.2737686 42.5,7.50000001 C56.5,-2.00000008 8.5,1.49999996 8.5,1.49999996 Z" id="Path-6" fill="#3458D0"></path>
                <g id="tail-feathers" transform="translate(22.753687, 52.743512) rotate(5.000000) translate(-22.753687, -52.743512) translate(4.753687, 7.243512)">
                    <path d="M1.58333334,34.0108696 C1.00000002,43.8967391 -0.978610215,82.8586948 2.16666654,88.0923905 C5.3119433,93.3260861 8.58333343,88.0923916 8.58333345,85.1847829 C8.58333346,82.2771742 5.66666653,0.864130435 5.66666653,0.864130435 C5.66666653,0.864130435 2.16666665,24.125 1.58333334,34.0108696 Z" id="Path-7" fill="#3458D0"></path>
                    <path d="M6.83333333,57.8532609 C6.83333333,57.8532609 5.65022352,78.0931591 8.58333327,81.1141304 C11.516443,84.1351017 16.0893492,81.6956522 15.0000002,71.8097826 C13.9106512,61.923913 5.5,0.5 5.5,0.5 L6.83333333,57.8532609 Z" id="Path-8" fill="#FF686C"></path>
                    <path d="M9.21092992,30.6287354 C9.21092992,30.6287354 12.4234577,70.1954491 16.1873498,73.6616723 C19.9512419,77.1278954 24.3535601,73.0757506 22.0244729,65.5164993 C20.3059652,59.9389362 7.95718297,11.6568291 7.95718297,11.6568291 C7.95718297,11.6568291 7.69056755,10.6090197 7.55725984,10.085115 C6.87150653,7.39007665 5.49999989,2.00000002 5.49999989,2.00000002 L9.21092992,30.6287354 Z" id="Path-8-Copy" fill="#F49CB1"></path>
                    <path d="M17.1198304,47.3555816 C17.1198304,47.3555816 20.9575227,60.6905301 23.4459058,62.8472669 C25.934289,65.0040037 31.7098549,63.8181015 27.5746824,54.7811793 C23.4395099,45.7442572 3.36024603,3.32147682 3.36024603,3.32147682 L17.1198304,47.3555816 Z" id="Path-8-Copy-2" fill="#009EE5" transform="translate(16.192132, 33.548007) rotate(4.000000) translate(-16.192132, -33.548007) "></path>
                    <path d="M12.7975651,22.8477065 C12.7975651,22.8477065 23.0431659,48.7577925 27.0396809,51.9530162 C31.0361958,55.1482399 36.285993,50.5557872 31.1335526,45.1709387 C25.9811123,39.7860901 3.42929266,2.6546251 3.42929266,2.6546251 L12.7975651,22.8477065 Z" id="Path-8-Copy-3" fill="#009EE5" transform="translate(18.353155, 27.830794) rotate(5.000000) translate(-18.353155, -27.830794) "></path>
                </g>
            </g>
            <path d="M189.477498,96.6431236 L176,87.6581249 L206,52.5 L205.990563,52.8317832 C215.943278,40.232288 232.392543,32 251,32 C277.220449,32 299.155448,55.0988561 304.665952,72.9959551 C316.580636,71.9423168 330.245004,71.5842107 344,73 C382.861702,77 409.500007,83.1572737 409.500007,83.1572737 C409.500007,83.1572737 343.791283,79.6272957 305.242999,86.9023447 C301.470416,102.607035 283.989622,123.439174 261.664202,128.734453 C263.786583,138.943445 265.384788,152.152116 264,166 C261,196 264,190.5 245,216.5 C226,242.5 186.766276,264.768943 172.832769,255.454273 C158.899262,246.139603 147.109371,179.901953 149.252987,170.069802 C151.139694,161.41602 182.086691,109.066786 189.477498,96.6431236 Z" id="body" fill="#3458D0"></path>
            <g id="wing---back" transform="translate(29.000000, 44.000000)">
                <path d="M171.946015,50.6765158 C171.946015,50.6765158 64.9460145,-10.8234842 10.4460145,1.67651584 C-0.810097064,4.25819281 -2.21258989,11.2334747 2.64846307,20.6773776 C4.94887565,25.1465477 15.2746251,27.1291461 20,32.5 C24.0556885,37.1096893 22.241787,45.0157655 27.5629741,50.0104055 C31.5758143,53.7769882 42.0074376,53.6431665 46.5,57.5 C52.0189204,62.2379548 51.694633,70.9754571 57.5905541,75.6635758 C93.3136124,104.068627 132.446015,129.676516 132.446015,129.676516 L171.946015,50.6765158 Z" id="Path-3" fill="#3458D0"></path>
                <path d="M41.1811539,0.947116413 C29.976514,-0.434304855 19.4886216,-0.397476595 10.4460145,1.67651584 C-0.810097064,4.25819281 -2.21258989,11.2334747 2.64846307,20.6773776 C4.94887565,25.1465477 15.2746251,27.1291461 20,32.5 C24.0556885,37.1096893 22.241787,45.0157655 27.5629741,50.0104055 C31.5758143,53.7769882 42.0074376,53.6431665 46.5,57.5 C52.0189204,62.2379548 51.694633,70.9754571 57.5905541,75.6635758 C85.320397,97.7128525 112.726866,110.739647 123.603207,115.465343 C116.245024,105.400425 103.832034,90.9633641 84.5905541,75.6635758 C78.694633,70.9754571 79.0189204,62.2379548 73.5,57.5 C69.0074376,53.6431665 58.5758143,53.7769882 54.5629741,50.0104055 C49.241787,45.0157655 51.0556885,37.1096893 47,32.5 C42.2746251,27.1291461 31.9488757,25.1465477 29.6484631,20.6773776 C24.7874101,11.2334747 26.1899029,4.25819281 37.4460145,1.67651584 C38.6653761,1.39684576 39.911018,1.15421847 41.1811539,0.947116413 Z" id="red" fill="#FF686C"></path>
                <path d="M58.525525,3.92640731 C51.0983232,2.17478931 43.9759516,0.951810547 37.5000004,0.500000006 C25.853834,-0.312523224 24.7874101,11.2334747 29.6484631,20.6773776 C31.9488757,25.1465477 42.2746251,27.1291461 47,32.5 C51.0556885,37.1096893 49.241787,45.0157655 54.5629741,50.0104055 C58.5758143,53.7769882 69.0074376,53.6431665 73.5,57.5 C79.0189204,62.2379548 78.694633,70.9754571 84.5905541,75.6635758 C120.313612,104.068627 134,102 134,102 L135.366536,97.3310033 C128.971963,90.6041283 121.11842,83.2396209 111.590554,75.6635758 C105.694633,70.9754571 106.01892,62.2379548 100.5,57.5 C96.0074376,53.6431665 85.5758143,53.7769882 81.5629741,50.0104055 C76.241787,45.0157655 78.0556885,37.1096893 74,32.5 C69.2746251,27.1291461 58.9488757,25.1465477 56.6484631,20.6773776 C52.8305234,13.2600027 52.8764107,7.3654594 58.525525,3.92640731 Z" id="pink" fill="#F49CB1"></path>
            </g>
            <g id="wing---back" transform="translate(0.000000, 109.000000)">
                <path d="M174.602276,49.5 C174.602276,49.5 137,72 108,74.5 C101.582492,75.0532335 95.9218371,66.9494235 86,66 C79.6017411,65.3877487 66.9363708,71.0925878 60,70 C50.7022502,68.5354577 48.7492227,61.586754 40,59.497467 C31.9050324,57.5644142 23.1511569,61.7403862 16.9561055,59.4974656 C7.58440232,56.1044373 1.17321071,52.4805373 0.102276145,49 C-3.89772386,36 110.602276,0 138.102276,0 C165.602276,0 187.102276,6 187.102276,6 L174.602276,49.5 Z" id="Path-4" fill="#3458D0"></path>
                <path d="M6.73587543,40.9728638 C1.95870857,44.0676424 -0.551289299,46.805755 0.102276145,48.9298427 C1.17321071,52.4103801 7.58440232,56.03428 16.9561055,59.4273084 C23.1511569,61.6702289 31.9050324,57.4942569 40,59.4273098 C48.7492227,61.5165967 50.7022502,68.4653005 60,69.9298427 C66.9363708,71.0224305 79.6017411,65.3175914 86,65.9298427 C95.9218371,66.8792662 101.582492,74.9830762 108,74.4298427 C137,71.9298427 161.5,65.0000026 161.5,65.0000026 L161.407377,64.3516443 C157.465915,63.3904599 134.389037,58.1549258 108,60.4298427 C101.582492,60.9830762 95.9218371,52.8792662 86,51.9298427 C79.6017411,51.3175914 66.9363708,57.0224305 60,55.9298427 C50.7022502,54.4653005 48.7492227,47.5165967 40,45.4273098 C31.9050324,43.4942569 23.1511569,47.6702289 16.9561055,45.4273084 C12.944779,43.9750062 9.47583512,42.4804071 6.73588555,40.9728572 Z" id="red" fill="#FF686C"></path>
                <path d="M6.64048513,40.9201984 C9.39513634,42.4456005 12.8980783,43.9580982 16.9561055,45.4273084 C23.1511569,47.6702289 31.9050324,43.4942569 40,45.4273098 C48.7492227,47.5165967 50.7022502,54.4653005 60,55.9298427 C66.9363708,57.0224305 79.6017411,51.3175914 86,51.9298427 C95.9218371,52.8792662 101.582492,60.9830762 108,60.4298427 C137,57.9298427 161.5,64.5000026 161.5,64.5000026 L161.458662,63.987413 C158.127461,60.9238674 139.686886,45.2425122 113.499997,47.5000026 C107.082489,48.0532361 95.9218371,38.8792662 86,37.9298427 C79.6017411,37.3175914 66.9363708,43.0224305 60,41.9298427 C50.7022502,40.4653005 53.5000008,37.9999988 39.5000008,33.9999988 C26.2024955,30.2007116 8.39418201,39.9338498 6.64048513,40.9201984 Z" id="pink" fill="#F49CB1"></path>
            </g>
            <path d="M188.957562,96.2819362 L189.499343,96.6431236 C189.472323,96.6885436 189.444987,96.7344972 189.41734,96.7809803 C194.442886,102.165412 201.573667,107.522474 211.021845,109.5 C232.518858,113.999375 249.517121,122.497638 264.515592,152.987288 C264.330779,144.010396 263.12967,135.678511 261.686047,128.734453 C284.011467,123.439174 301.492261,102.607035 305.264844,86.9023447 C343.813128,79.6272957 409.521852,83.1572737 409.521852,83.1572737 C409.521852,83.1572737 382.883547,77 344.021845,73 C330.266849,71.5842107 316.602481,71.9423168 304.687793,72.9959555 C299.177293,55.0988561 277.242294,32 251.021845,32 C232.414388,32 215.965123,40.232288 206.012408,52.8317832 L206.021845,52.5 L180,82.9959759 L180.021845,83 C180.021845,83 182.864048,89.581944 188.957562,96.2819362 Z" id="head" fill="#3458D0"></path>
            <g id="eye" transform="translate(238.000000, 51.000000)">
                <circle id="Oval-2-Copy-2" fill="#000000" cx="24" cy="24" r="24"></circle>
                <path d="M47.6596561,28.0503959 C45.7346195,39.3764439 35.8743795,48 24,48 C10.745166,48 0,37.254834 0,24 C0,10.745166 10.745166,0 24,0 C37.254834,0 48,10.745166 48,24 C48,24.0888644 47.999517,24.177616 47.9985536,24.2662523 C47.8733761,14.1567041 39.6392382,6 29.5,6 C19.2827321,6 11,14.2827321 11,24.5 C11,34.7172679 19.2827321,43 29.5,43 C38.502923,43 46.003831,36.5691093 47.6596561,28.0503959 Z" id="Combined-Shape" fill="#FFFFFF"></path>
                <circle id="Oval-6" fill="#FFFFFF" cx="35" cy="30" r="5"></circle>
            </g>
        </g>
    </g>
</svg>