<?xml version="1.0" encoding="utf-8"?>
<!-- Generator: Adobe Illustrator 19.1.0, SVG Export Plug-In . SVG Version: 6.00 Build 0)  -->
<!DOCTYPE svg PUBLIC "-//W3C//DTD SVG 1.1//EN" "http://www.w3.org/Graphics/SVG/1.1/DTD/svg11.dtd">
<svg version="1.1" id="Layer_1" xmlns:sketch="http://www.bohemiancoding.com/sketch/ns"
	 xmlns="http://www.w3.org/2000/svg" xmlns:xlink="http://www.w3.org/1999/xlink" x="0px" y="0px" viewBox="-171 304 136 34"
	 style="enable-background:new -171 304 136 34;" xml:space="preserve">
<style type="text/css">
	.st0{fill:#222222;}
	.st1{enable-background:new    ;}
	.st2{fill:#FF686C;}
	.st3{fill:#FFA6BB;}
	.st4{fill:#3458D0;}
</style>
<title>remix-button</title>
<desc>Created with Sketch.</desc>
<g id="Page-1" sketch:type="MSPage">
	<g id="remix-button" transform="translate(1.000000, 1.000000)" sketch:type="MSLayerGroup">
		<g id="Rectangle-79-Copy-2">
			<path class="st0" d="M-42,337h-124c-3.3,0-6-2.7-6-6v-22c0-3.3,2.7-6,6-6h124c3.3,0,6,2.7,6,6v22C-36,334.3-38.7,337-42,337z
				 M-166,305c-2.2,0-4,1.8-4,4v22c0,2.2,1.8,4,4,4h124c2.2,0,4-1.8,4-4v-22c0-2.2-1.8-4-4-4H-166z"/>
		</g>
		<g class="st1">
			<path class="st0" d="M-158.8,325v-10.4h3.7c2.5,0,3.9,1,3.9,3.1c0,1.7-0.9,2.6-2.3,2.9l2.4,4.3h-1.9l-2.3-4.1h-1.8v4.1H-158.8z
				 M-157.1,319.4h1.9c1.5,0,2.2-0.4,2.2-1.6c0-1.2-0.8-1.6-2.3-1.6h-1.9V319.4z"/>
			<path class="st0" d="M-150.2,321.3c0-2.8,2-3.9,3.5-3.9c1.7,0,3.3,1,3.3,4v0.4h-5.1c0.1,1.3,0.9,1.9,2,1.9c1,0,1.5-0.3,2.1-0.9
				l0.9,0.9c-0.8,0.9-1.8,1.3-3.1,1.3C-148.5,325.2-150.2,324-150.2,321.3z M-145,320.6c-0.1-1.1-0.7-1.7-1.7-1.7
				c-0.8,0-1.6,0.5-1.8,1.7H-145z"/>
			<path class="st0" d="M-141.9,325v-7.4h1.7v1c0.6-0.6,1.4-1.2,2.5-1.2c1.2,0,1.7,0.5,2,1.2c0.6-0.6,1.5-1.2,2.6-1.2
				c1.5,0,2.2,0.9,2.2,2.2v5.3h-1.7v-4.9c0-0.8-0.2-1.2-1.1-1.2c-0.7,0-1.3,0.4-1.9,1v5.1h-1.7v-4.9c0-0.8-0.2-1.2-1.1-1.2
				c-0.7,0-1.3,0.4-1.9,1v5.1H-141.9z"/>
			<path class="st0" d="M-128.9,316.3v-1.5h1.8v1.5H-128.9z M-128.9,325v-7.4h1.7v7.4H-128.9z"/>
			<path class="st0" d="M-125.8,325l2.6-3.8l-2.4-3.6h1.8l1.6,2.4l1.5-2.4h1.8l-2.4,3.6l2.6,3.8h-1.8l-1.7-2.6l-1.7,2.6H-125.8z"/>
			<path class="st0" d="M-114.1,316.3v-1.5h1.8v1.5H-114.1z M-114.1,325v-7.4h1.7v7.4H-114.1z"/>
			<path class="st0" d="M-110.3,325v-7.4h1.7v1.2c0.6-0.6,1.4-1.3,2.7-1.3c1.4,0,2.2,0.7,2.2,2.2v5.4h-1.7v-4.9
				c0-0.8-0.3-1.2-1.1-1.2c-0.8,0-1.4,0.4-2,1v5.2H-110.3z"/>
		</g>
		<g id="Group-7" transform="translate(76.000000, 7.000000)" sketch:type="MSShapeGroup">
			<g id="Rectangle-1-Copy-34">
				<path class="st2" d="M-165,304L-165,304l-6,0v15.8h6v-5.9c0.1,0,0.1,0,0.2,0c2.8,0,5-2.2,5-4.9s-2.2-4.9-5-4.9
					C-164.9,304-164.9,304-165,304z"/>
			</g>
			<g id="Rectangle-1-Copy-35">
				<path class="st3" d="M-130.3,313.8V304h-6v15.8h1.3v0h9.9v-6H-130.3z"/>
			</g>
			<g id="Triangle-1-Copy-16">
				<polygon class="st4" points="-150.1,304 -140.1,319.8 -160.1,319.8 				"/>
			</g>
		</g>
	</g>
</g>
</svg>
