<?xml version="1.0" encoding="UTF-8" standalone="no"?>
<svg width="47px" height="40px" viewBox="0 0 47 40" version="1.1" xmlns="http://www.w3.org/2000/svg" xmlns:xlink="http://www.w3.org/1999/xlink" xmlns:sketch="http://www.bohemiancoding.com/sketch/ns">
    <!-- Generator: Sketch 3.5.1 (25234) - http://www.bohemiancoding.com/sketch -->
    <title>Group 8</title>
    <desc>Created with Sketch.</desc>
    <defs></defs>
    <g id="Page-1" stroke="none" stroke-width="1" fill="none" fill-rule="evenodd" sketch:type="MSPage">
        <g id="Group-8" sketch:type="MSLayerGroup">
            <path d="M32,24 L32,0 L22,0 L22,29 L22,34 L47,34 L47,24 L32,24 Z" id="Rectangle-1-Copy-32" fill="#3458D0" sketch:type="MSShapeGroup"></path>
            <polygon id="Triangle-1-Copy-15" fill="#FFA6BB" sketch:type="MSShapeGroup" points="19.5 4 38 34 1 34 "></polygon>
            <path d="M10,0.0969397194 L10,0 L0,0 L0,40 L10,40 L10,22.9030603 C10.4909461,22.9670122 10.9916207,23 11.5,23 C17.8512746,23 23,17.8512746 23,11.5 C23,5.14872538 17.8512746,0 11.5,0 C10.9916207,0 10.4909461,0.0329878239 10,0.0969397194 Z" id="Rectangle-1-Copy-33" fill="#FF686C" sketch:type="MSShapeGroup"></path>
        </g>
    </g>
</svg>